<svg width="77" height="76" viewBox="0 0 77 76" fill="none" xmlns="http://www.w3.org/2000/svg">
<g opacity="0.5">
<rect x="0.666656" width="76" height="75.9978" rx="8" fill="#D7BDE2" fill-opacity="0.4"/>
</g>
<mask id="path-2-inside-1_spirit" fill="white">
<path d="M6.66666 10C6.66666 7.79086 8.45752 6 10.6667 6H65.6667C67.8758 6 69.6667 7.79086 69.6667 10V75.9988H6.66666V10Z"/>
</mask>
<path d="M6.66666 10C6.66666 7.79086 8.45752 6 10.6667 6H65.6667C67.8758 6 69.6667 7.79086 69.6667 10V75.9988H6.66666V10Z" fill="white"/>
<path d="M5.66666 10C5.66666 7.23858 7.90523 5 10.6667 5H65.6667C68.4281 5 70.6667 7.23858 70.6667 10H68.6667C68.6667 8.34315 67.3235 7 65.6667 7H10.6667C9.0098 7 7.66666 8.34315 7.66666 10H5.66666ZM69.6667 75.9988H6.66666H69.6667ZM5.66666 75.9988V10C5.66666 7.23858 7.90523 5 10.6667 5V7C9.0098 7 7.66666 8.34315 7.66666 10V75.9988H5.66666ZM65.6667 5C68.4281 5 70.6667 7.23858 70.6667 10V75.9988H68.6667V10C68.6667 8.34315 67.3235 7 65.6667 7V5Z" fill="#D7BDE2" fill-opacity="0.4" mask="url(#path-2-inside-1_spirit)"/>
<path d="M61.667 54C63.876 54.0002 65.667 55.791 65.667 58V66C65.667 68.209 63.876 69.9998 61.667 70H14.667C12.4579 70 10.667 68.2091 10.667 66V58C10.667 55.7909 12.4579 54 14.667 54H61.667ZM42.6162 38.1914C44.8254 38.1914 46.6162 39.9823 46.6162 42.1914V44.5303C46.6162 46.7394 44.8254 48.5303 42.6162 48.5303H15.0635C12.8544 48.5302 11.0635 46.7394 11.0635 44.5303V42.1914C11.0635 39.9823 12.8544 38.1915 15.0635 38.1914H42.6162ZM61.7178 38.1914C63.9268 38.1916 65.7178 39.9824 65.7178 42.1914V44.5303C65.7178 46.7393 63.9268 48.5301 61.7178 48.5303H52.6162C50.4071 48.5303 48.6163 46.7394 48.6162 44.5303V42.1914C48.6162 39.9823 50.4071 38.1914 52.6162 38.1914H61.7178ZM32.4746 10.9961C34.6836 10.9963 36.4746 12.7871 36.4746 14.9961V29.1934C36.4746 31.4024 34.6836 33.1931 32.4746 33.1934H15.544C13.3348 33.1934 11.544 31.4025 11.544 29.1934V14.9961C11.544 12.787 13.3348 10.9961 15.544 10.9961H32.4746ZM61.4043 10.9961C63.6135 10.9961 65.4043 12.787 65.4043 14.9961V29.1934C65.4043 31.4025 63.6135 33.1934 61.4043 33.1934H44.4746C42.2655 33.1934 40.4746 31.4025 40.4746 29.1934V14.9961C40.4746 12.787 42.2655 10.9961 44.4746 10.9961H61.4043Z" fill="url(#paint0_linear_spirit)" fill-opacity="0.4"/>
<defs>
<linearGradient id="paint0_linear_spirit" x1="38.2897" y1="12.9962" x2="38.2897" y2="76.5004" gradientUnits="userSpaceOnUse">
<stop stop-color="#9B59B6"/>
<stop offset="0.886996" stop-color="white"/>
</linearGradient>
</defs>
</svg>