<svg width="32" height="32" viewBox="0 0 32 32" fill="none" xmlns="http://www.w3.org/2000/svg">
<path d="M29.3346 18.6667L25.416 15.8453C23.3797 14.3792 20.5969 14.5307 18.7319 16.2092L13.2708 21.1242C11.4057 22.8028 8.6229 22.9543 6.58664 21.4882L2.66797 18.6667M8.0013 29.3334H24.0013C26.9468 29.3334 29.3346 26.9456 29.3346 24.0001V8.00008C29.3346 5.05456 26.9468 2.66675 24.0013 2.66675H8.0013C5.05578 2.66675 2.66797 5.05456 2.66797 8.00008V24.0001C2.66797 26.9456 5.05578 29.3334 8.0013 29.3334ZM14.668 11.3334C14.668 13.1744 13.1756 14.6667 11.3346 14.6667C9.49369 14.6667 8.0013 13.1744 8.0013 11.3334C8.0013 9.49247 9.49369 8.00008 11.3346 8.00008C13.1756 8.00008 14.668 9.49247 14.668 11.3334Z" stroke="#564BF1" stroke-width="1.5" stroke-linecap="round"/>
</svg>
