<svg width="32" height="32" viewBox="0 0 32 32" fill="none" xmlns="http://www.w3.org/2000/svg">
<path d="M21.332 26.6667L23.9182 28.7356C24.3361 29.0699 24.9431 29.016 25.2955 28.6132L29.332 24" stroke="#564BF1" stroke-width="1.5" stroke-linecap="round" stroke-linejoin="round"/>
<path d="M29.332 18.6667V8H6.66536C4.45622 8 2.66536 9.79086 2.66536 12V25.3333C2.66536 27.5425 4.45623 29.3333 6.66536 29.3333H17.332" stroke="#564BF1" stroke-width="1.5" stroke-linecap="round" stroke-linejoin="round"/>
<path d="M29.332 6.66675C29.332 4.45761 27.5412 2.66675 25.332 2.66675H14.6654C12.4562 2.66675 10.6654 4.45761 10.6654 6.66675V8.00008H29.332V6.66675Z" stroke="#564BF1" stroke-width="1.5" stroke-linejoin="round"/>
<path d="M2.66797 16L2.66797 21.3333L8.0013 21.3333C9.47406 21.3333 10.668 20.1394 10.668 18.6667V18.6667C10.668 17.1939 9.47406 16 8.0013 16L2.66797 16Z" stroke="#564BF1" stroke-width="1.5" stroke-linejoin="round"/>
</svg>
